<?xml version="1.0" encoding="UTF-8"?>
<!--
  CCD BRB Design System · Icon sprite

  34 utility icons, derived from Lucide v0.x (ISC license).
  All symbols share: viewBox 24x24, stroke="currentColor",
  stroke-width=2, round caps & joins, no fills.

  Two ways to consume:
  (a) Inline · paste this entire svg block once at the top of
      body (preferred, no CORS, no extra request).
  (b) External · svg use href="icons.svg#i-name". Same-origin
      only. Browsers will not load cross-origin sprite symbols,
      so this won't work via CDN.

  Reference each glyph with: svg class="icon" / use href="#i-name"
  Sizing and spin classes live in icons.css.

  Spec: DESIGN-SYSTEM.md §9 Iconography
-->
<svg xmlns="http://www.w3.org/2000/svg" width="0" height="0" style="position:absolute" aria-hidden="true">

  <!-- Navigation / chrome (7) -->
  <symbol id="i-menu" viewBox="0 0 24 24" fill="none" stroke="currentColor" stroke-width="2" stroke-linecap="round" stroke-linejoin="round"><line x1="4" y1="6" x2="20" y2="6"/><line x1="4" y1="12" x2="20" y2="12"/><line x1="4" y1="18" x2="20" y2="18"/></symbol>
  <symbol id="i-x" viewBox="0 0 24 24" fill="none" stroke="currentColor" stroke-width="2" stroke-linecap="round" stroke-linejoin="round"><line x1="18" y1="6" x2="6" y2="18"/><line x1="6" y1="6" x2="18" y2="18"/></symbol>
  <symbol id="i-chevron-down" viewBox="0 0 24 24" fill="none" stroke="currentColor" stroke-width="2" stroke-linecap="round" stroke-linejoin="round"><polyline points="6 9 12 15 18 9"/></symbol>
  <symbol id="i-chevron-right" viewBox="0 0 24 24" fill="none" stroke="currentColor" stroke-width="2" stroke-linecap="round" stroke-linejoin="round"><polyline points="9 18 15 12 9 6"/></symbol>
  <symbol id="i-chevron-left" viewBox="0 0 24 24" fill="none" stroke="currentColor" stroke-width="2" stroke-linecap="round" stroke-linejoin="round"><polyline points="15 18 9 12 15 6"/></symbol>
  <symbol id="i-arrow-right" viewBox="0 0 24 24" fill="none" stroke="currentColor" stroke-width="2" stroke-linecap="round" stroke-linejoin="round"><line x1="5" y1="12" x2="19" y2="12"/><polyline points="12 5 19 12 12 19"/></symbol>
  <symbol id="i-arrow-left" viewBox="0 0 24 24" fill="none" stroke="currentColor" stroke-width="2" stroke-linecap="round" stroke-linejoin="round"><line x1="19" y1="12" x2="5" y2="12"/><polyline points="12 19 5 12 12 5"/></symbol>

  <!-- Status / feedback (5) -->
  <symbol id="i-check" viewBox="0 0 24 24" fill="none" stroke="currentColor" stroke-width="2" stroke-linecap="round" stroke-linejoin="round"><polyline points="20 6 9 17 4 12"/></symbol>
  <symbol id="i-check-circle" viewBox="0 0 24 24" fill="none" stroke="currentColor" stroke-width="2" stroke-linecap="round" stroke-linejoin="round"><circle cx="12" cy="12" r="10"/><polyline points="9 12 11 14 15 10"/></symbol>
  <symbol id="i-alert-triangle" viewBox="0 0 24 24" fill="none" stroke="currentColor" stroke-width="2" stroke-linecap="round" stroke-linejoin="round"><path d="M10.29 3.86 1.82 18a2 2 0 0 0 1.71 3h16.94a2 2 0 0 0 1.71-3L13.71 3.86a2 2 0 0 0-3.42 0z"/><line x1="12" y1="9" x2="12" y2="13"/><line x1="12" y1="17" x2="12.01" y2="17"/></symbol>
  <symbol id="i-alert-circle" viewBox="0 0 24 24" fill="none" stroke="currentColor" stroke-width="2" stroke-linecap="round" stroke-linejoin="round"><circle cx="12" cy="12" r="10"/><line x1="12" y1="8" x2="12" y2="12"/><line x1="12" y1="16" x2="12.01" y2="16"/></symbol>
  <symbol id="i-help-circle" viewBox="0 0 24 24" fill="none" stroke="currentColor" stroke-width="2" stroke-linecap="round" stroke-linejoin="round"><circle cx="12" cy="12" r="10"/><path d="M9.09 9a3 3 0 0 1 5.83 1c0 2-3 3-3 3"/><line x1="12" y1="17" x2="12.01" y2="17"/></symbol>

  <!-- Actions (6) -->
  <symbol id="i-plus" viewBox="0 0 24 24" fill="none" stroke="currentColor" stroke-width="2" stroke-linecap="round" stroke-linejoin="round"><line x1="12" y1="5" x2="12" y2="19"/><line x1="5" y1="12" x2="19" y2="12"/></symbol>
  <symbol id="i-search" viewBox="0 0 24 24" fill="none" stroke="currentColor" stroke-width="2" stroke-linecap="round" stroke-linejoin="round"><circle cx="11" cy="11" r="8"/><line x1="21" y1="21" x2="16.65" y2="16.65"/></symbol>
  <symbol id="i-filter" viewBox="0 0 24 24" fill="none" stroke="currentColor" stroke-width="2" stroke-linecap="round" stroke-linejoin="round"><polygon points="22 3 2 3 10 12.46 10 19 14 21 14 12.46 22 3"/></symbol>
  <symbol id="i-sliders-horizontal" viewBox="0 0 24 24" fill="none" stroke="currentColor" stroke-width="2" stroke-linecap="round" stroke-linejoin="round"><line x1="21" y1="4" x2="14" y2="4"/><line x1="10" y1="4" x2="3" y2="4"/><line x1="21" y1="12" x2="12" y2="12"/><line x1="8" y1="12" x2="3" y2="12"/><line x1="21" y1="20" x2="16" y2="20"/><line x1="12" y1="20" x2="3" y2="20"/><line x1="14" y1="2" x2="14" y2="6"/><line x1="8" y1="10" x2="8" y2="14"/><line x1="16" y1="18" x2="16" y2="22"/></symbol>
  <symbol id="i-more-vertical" viewBox="0 0 24 24" fill="none" stroke="currentColor" stroke-width="2" stroke-linecap="round" stroke-linejoin="round"><circle cx="12" cy="12" r="1"/><circle cx="12" cy="5" r="1"/><circle cx="12" cy="19" r="1"/></symbol>
  <symbol id="i-download" viewBox="0 0 24 24" fill="none" stroke="currentColor" stroke-width="2" stroke-linecap="round" stroke-linejoin="round"><path d="M21 15v4a2 2 0 0 1-2 2H5a2 2 0 0 1-2-2v-4"/><polyline points="7 10 12 15 17 10"/><line x1="12" y1="15" x2="12" y2="3"/></symbol>

  <!-- Data / context (4) -->
  <symbol id="i-calendar" viewBox="0 0 24 24" fill="none" stroke="currentColor" stroke-width="2" stroke-linecap="round" stroke-linejoin="round"><rect x="3" y="4" width="18" height="18" rx="2" ry="2"/><line x1="16" y1="2" x2="16" y2="6"/><line x1="8" y1="2" x2="8" y2="6"/><line x1="3" y1="10" x2="21" y2="10"/></symbol>
  <symbol id="i-clock" viewBox="0 0 24 24" fill="none" stroke="currentColor" stroke-width="2" stroke-linecap="round" stroke-linejoin="round"><circle cx="12" cy="12" r="10"/><polyline points="12 6 12 12 16 14"/></symbol>
  <symbol id="i-user" viewBox="0 0 24 24" fill="none" stroke="currentColor" stroke-width="2" stroke-linecap="round" stroke-linejoin="round"><path d="M20 21v-2a4 4 0 0 0-4-4H8a4 4 0 0 0-4 4v2"/><circle cx="12" cy="7" r="4"/></symbol>
  <symbol id="i-users" viewBox="0 0 24 24" fill="none" stroke="currentColor" stroke-width="2" stroke-linecap="round" stroke-linejoin="round"><path d="M16 21v-2a4 4 0 0 0-4-4H6a4 4 0 0 0-4 4v2"/><circle cx="9" cy="7" r="4"/><path d="M22 21v-2a4 4 0 0 0-3-3.87"/><path d="M16 3.13a4 4 0 0 1 0 7.75"/></symbol>

  <!-- Form helpers (3) -->
  <symbol id="i-eye" viewBox="0 0 24 24" fill="none" stroke="currentColor" stroke-width="2" stroke-linecap="round" stroke-linejoin="round"><path d="M2 12s3-7 10-7 10 7 10 7-3 7-10 7-10-7-10-7z"/><circle cx="12" cy="12" r="3"/></symbol>
  <symbol id="i-eye-off" viewBox="0 0 24 24" fill="none" stroke="currentColor" stroke-width="2" stroke-linecap="round" stroke-linejoin="round"><path d="M9.88 9.88a3 3 0 1 0 4.24 4.24"/><path d="M10.73 5.08A10.43 10.43 0 0 1 12 5c7 0 10 7 10 7a13.16 13.16 0 0 1-1.67 2.68"/><path d="M6.61 6.61A13.526 13.526 0 0 0 2 12s3 7 10 7a9.74 9.74 0 0 0 5.39-1.61"/><line x1="2" y1="2" x2="22" y2="22"/></symbol>
  <symbol id="i-external-link" viewBox="0 0 24 24" fill="none" stroke="currentColor" stroke-width="2" stroke-linecap="round" stroke-linejoin="round"><path d="M18 13v6a2 2 0 0 1-2 2H5a2 2 0 0 1-2-2V8a2 2 0 0 1 2-2h6"/><polyline points="15 3 21 3 21 9"/><line x1="10" y1="14" x2="21" y2="3"/></symbol>

  <!-- Tables / row actions (5) -->
  <symbol id="i-edit" viewBox="0 0 24 24" fill="none" stroke="currentColor" stroke-width="2" stroke-linecap="round" stroke-linejoin="round"><path d="M11 4H4a2 2 0 0 0-2 2v14a2 2 0 0 0 2 2h14a2 2 0 0 0 2-2v-7"/><path d="M18.5 2.5a2.121 2.121 0 0 1 3 3L12 15l-4 1 1-4 9.5-9.5z"/></symbol>
  <symbol id="i-trash" viewBox="0 0 24 24" fill="none" stroke="currentColor" stroke-width="2" stroke-linecap="round" stroke-linejoin="round"><polyline points="3 6 5 6 21 6"/><path d="M19 6v14a2 2 0 0 1-2 2H7a2 2 0 0 1-2-2V6m3 0V4a2 2 0 0 1 2-2h4a2 2 0 0 1 2 2v2"/><line x1="10" y1="11" x2="10" y2="17"/><line x1="14" y1="11" x2="14" y2="17"/></symbol>
  <symbol id="i-copy" viewBox="0 0 24 24" fill="none" stroke="currentColor" stroke-width="2" stroke-linecap="round" stroke-linejoin="round"><rect x="9" y="9" width="13" height="13" rx="2" ry="2"/><path d="M5 15H4a2 2 0 0 1-2-2V4a2 2 0 0 1 2-2h9a2 2 0 0 1 2 2v1"/></symbol>
  <symbol id="i-refresh-cw" viewBox="0 0 24 24" fill="none" stroke="currentColor" stroke-width="2" stroke-linecap="round" stroke-linejoin="round"><polyline points="23 4 23 10 17 10"/><polyline points="1 20 1 14 7 14"/><path d="M3.51 9a9 9 0 0 1 14.85-3.36L23 10M1 14l4.64 4.36A9 9 0 0 0 20.49 15"/></symbol>
  <symbol id="i-loader" viewBox="0 0 24 24" fill="none" stroke="currentColor" stroke-width="2" stroke-linecap="round" stroke-linejoin="round"><line x1="12" y1="2" x2="12" y2="6"/><line x1="12" y1="18" x2="12" y2="22"/><line x1="4.93" y1="4.93" x2="7.76" y2="7.76"/><line x1="16.24" y1="16.24" x2="19.07" y2="19.07"/><line x1="2" y1="12" x2="6" y2="12"/><line x1="18" y1="12" x2="22" y2="12"/><line x1="4.93" y1="19.07" x2="7.76" y2="16.24"/><line x1="16.24" y1="7.76" x2="19.07" y2="4.93"/></symbol>

  <!-- Domain (4) -->
  <symbol id="i-message-square" viewBox="0 0 24 24" fill="none" stroke="currentColor" stroke-width="2" stroke-linecap="round" stroke-linejoin="round"><path d="M21 15a2 2 0 0 1-2 2H7l-4 4V5a2 2 0 0 1 2-2h14a2 2 0 0 1 2 2z"/></symbol>
  <symbol id="i-tag" viewBox="0 0 24 24" fill="none" stroke="currentColor" stroke-width="2" stroke-linecap="round" stroke-linejoin="round"><path d="M20.59 13.41l-7.17 7.17a2 2 0 0 1-2.83 0L2 12V2h10l8.59 8.59a2 2 0 0 1 0 2.82z"/><line x1="7" y1="7" x2="7.01" y2="7"/></symbol>
  <symbol id="i-clipboard-check" viewBox="0 0 24 24" fill="none" stroke="currentColor" stroke-width="2" stroke-linecap="round" stroke-linejoin="round"><path d="M16 4h2a2 2 0 0 1 2 2v14a2 2 0 0 1-2 2H6a2 2 0 0 1-2-2V6a2 2 0 0 1 2-2h2"/><rect x="8" y="2" width="8" height="4" rx="1" ry="1"/><path d="m9 14 2 2 4-4"/></symbol>
  <symbol id="i-briefcase" viewBox="0 0 24 24" fill="none" stroke="currentColor" stroke-width="2" stroke-linecap="round" stroke-linejoin="round"><rect x="2" y="7" width="20" height="14" rx="2" ry="2"/><path d="M16 21V5a2 2 0 0 0-2-2h-4a2 2 0 0 0-2 2v16"/></symbol>

</svg>
